<?xml version="1.0" encoding="UTF-8"?>
<svg id="Laag_1" data-name="Laag 1" xmlns="http://www.w3.org/2000/svg" viewBox="0 0 466.01 169.63">
  <defs>
    <style>
      .cls-1 {
        fill: #b068a8;
      }

      .cls-1, .cls-2, .cls-3, .cls-4, .cls-5, .cls-6, .cls-7, .cls-8 {
        stroke: #020202;
        stroke-miterlimit: 10;
      }

      .cls-2 {
        fill: #2aa1d1;
      }

      .cls-9 {
        font-family: Magneto-Bold, Magneto;
        font-size: 58px;
        font-weight: 700;
      }

      .cls-9, .cls-10 {
        fill: #1d1d1b;
      }

      .cls-3 {
        fill: #e94d1c;
      }

      .cls-4 {
        fill: #e94e1d;
      }

      .cls-5 {
        fill: #7cbc61;
      }

      .cls-6 {
        fill: #f4e721;
      }

      .cls-7 {
        fill: #f2e623;
      }

      .cls-8 {
        fill: #2ca1d1;
      }
    </style>
  </defs>
  <rect class="cls-2" x="3.75" y="92.39" width="38.06" height="38.06"/>
  <rect class="cls-7" x="384.35" y="92.39" width="38.06" height="38.06"/>
  <rect class="cls-4" x="346.29" y="92.39" width="38.06" height="38.06"/>
  <rect class="cls-7" x="308.23" y="92.39" width="38.06" height="38.06"/>
  <rect class="cls-1" x="270.17" y="92.39" width="38.06" height="38.06"/>
  <rect class="cls-4" x="232.11" y="92.39" width="38.06" height="38.06"/>
  <rect class="cls-5" x="194.05" y="92.39" width="38.06" height="38.06"/>
  <rect class="cls-8" x="155.99" y="92.39" width="38.06" height="38.06"/>
  <rect class="cls-5" x="117.93" y="92.39" width="38.06" height="38.06"/>
  <rect class="cls-4" x="79.87" y="92.39" width="38.06" height="38.06"/>
  <rect class="cls-6" x="41.81" y="92.39" width="38.06" height="38.06"/>
  <rect class="cls-3" x="3.75" y="54.33" width="38.06" height="38.06"/>
  <rect class="cls-8" x="384.35" y="54.33" width="38.06" height="38.06"/>
  <rect class="cls-5" x="346.29" y="54.33" width="38.06" height="38.06"/>
  <rect class="cls-8" x="308.23" y="54.33" width="38.06" height="38.06"/>
  <rect class="cls-4" x="270.17" y="54.33" width="38.06" height="38.06"/>
  <rect class="cls-5" x="232.11" y="54.33" width="38.06" height="38.06"/>
  <rect class="cls-7" x="194.05" y="54.33" width="38.06" height="38.06"/>
  <rect class="cls-1" x="155.99" y="54.33" width="38.06" height="38.06"/>
  <rect class="cls-8" x="117.93" y="54.33" width="38.06" height="38.06"/>
  <rect class="cls-7" x="79.87" y="54.33" width="38.06" height="38.06"/>
  <rect class="cls-5" x="41.81" y="54.33" width="38.06" height="38.06"/>
  <text class="cls-9" transform="translate(0 48.92)"><tspan x="0" y="0">Disco Dealer</tspan></text>
  <path class="cls-10" d="m417.86,37.52c-.4-3.12.39-5.83,1.8-6.36,1.65-.62,4.85,1.45,6.44,5.92.18.04,2.85.54,4.68-1.36,1.5-1.56,1.78-4.07.61-6.11-.59-1.07-4.25-7.5-11.67-8.95-3.21-.63-5.94-.09-7.59.39-.94,1.09-2.19,2.81-3.06,5.2-1.45,4.01-.95,7.54-.61,9.17.12,1.49.58,4.68,2.75,7.95,2.18,3.28,4.95,4.94,6.28,5.62,6.61,3.41,8.38,4.73,10.54,6.3,7.2,5.24,7.25,17.02,7.3,28.54,0,1.48-.68,7.66-2.06,19.95-1.91,16.98-2.31,19.7-4.82,22.7-.98,1.18-4.4,4.93-17.89,7.57-14.94,2.92-26.87,1.45-27.52,1.38-8.88-1.09,1.9,1.12-61.91,1.38-55.92.22-73.22-1.44-125.2-1.38-36.97.04-36.95.89-76.7,1.19-48.77.36-88.42-.62-114.65-1.53,26.87,9.06,53.73,18.11,80.6,27.17,37.47-1.58,67.96-1.26,88.74-.69,38.48,1.06,44.17,2.99,88.74,4.13,55.05,1.4,49.18-1.48,83.24.69,33.39,2.12,46.4,5.36,69.48,1.38,22.09-3.82,39.26-11.81,50.22-17.89,1.07-17.23-.07-31.39-1.38-41.27-2.34-17.77-3.81-28.93-11.43-41.69-2.95-4.93-10.38-16.99-25.07-25.07-3.98-2.19-7.5-3.52-9.86-4.31Z"/>
</svg>